<?xml version="1.0" standalone="no"?>
<!DOCTYPE svg PUBLIC "-//W3C//DTD SVG 20010904//EN"
 "http://www.w3.org/TR/2001/REC-SVG-20010904/DTD/svg10.dtd">
<svg version="1.0" xmlns="http://www.w3.org/2000/svg"
 width="112.000000pt" height="109.000000pt" viewBox="0 0 112.000000 109.000000"
 preserveAspectRatio="xMidYMid meet">

<g transform="translate(0.000000,109.000000) scale(0.100000,-0.100000)"
fill="white" stroke="none">
<path d="M552 1070 c-67 -14 -142 -60 -176 -107 -29 -42 -32 -43 -85 -43 -69
0 -126 -25 -168 -73 -42 -48 -56 -96 -51 -177 3 -58 8 -75 34 -107 39 -49 87
-73 147 -73 61 0 60 23 -1 26 -52 3 -100 30 -130 75 -21 30 -23 44 -20 110 3
65 7 81 31 112 45 59 72 72 155 74 l75 2 23 39 c51 85 176 136 278 113 101
-22 170 -83 197 -172 11 -35 14 -37 64 -41 90 -8 145 -68 145 -160 0 -81 -58
-140 -151 -153 -63 -9 -63 -25 -1 -25 59 0 107 24 146 73 25 31 31 49 34 100
3 55 0 67 -26 108 -33 51 -97 89 -149 89 -26 0 -31 5 -42 41 -34 112 -197 196
-329 169z"/>
<path d="M480 783 c-31 -16 -35 -22 -32 -51 5 -45 -13 -64 -57 -60 -32 3 -38
-1 -53 -32 l-18 -34 31 -29 c26 -23 30 -33 25 -57 -4 -22 -2 -30 8 -30 33 0
27 80 -8 109 -29 24 -19 41 24 41 49 0 80 30 80 76 0 45 15 50 51 20 38 -33
69 -33 107 -1 41 34 52 32 52 -13 0 -50 32 -82 83 -82 30 0 37 -4 37 -19 0
-10 -7 -21 -15 -25 -36 -13 -43 -106 -9 -106 12 0 14 7 9 30 -5 25 -2 34 24
58 l31 28 -18 34 c-15 31 -21 35 -50 32 -45 -5 -64 13 -60 57 3 32 -1 38 -32
54 l-35 17 -25 -30 c-14 -17 -34 -30 -45 -30 -11 0 -31 13 -45 30 l-25 30 -35
-17z"/>
<path d="M522 650 c-44 -27 -73 -77 -70 -119 4 -52 28 -52 28 -1 0 58 50 110
105 110 55 0 105 -52 105 -110 0 -51 24 -51 28 1 5 65 -66 139 -133 139 -16 0
-45 -9 -63 -20z"/>
<path d="M342 387 l-42 -43 0 -95 c0 -82 -3 -97 -20 -112 -25 -21 -25 -42 0
-67 23 -23 33 -24 61 -10 23 13 26 62 4 80 -11 9 -15 35 -15 104 0 92 0 92 35
126 33 32 45 60 27 60 -4 0 -27 -19 -50 -43z m-9 -273 c9 -10 -4 -34 -18 -34
-17 0 -28 17 -20 30 7 11 28 13 38 4z"/>
<path d="M450 394 c-39 -35 -40 -39 -40 -99 0 -43 -5 -66 -15 -75 -21 -18 -19
-56 6 -73 42 -30 92 12 70 59 -6 13 -15 24 -21 24 -6 0 -10 25 -10 58 0 53 3
61 35 92 61 59 39 71 -25 14z m-3 -200 c8 -21 -13 -42 -28 -27 -13 13 -5 43
11 43 6 0 13 -7 17 -16z"/>
<path d="M570 375 c0 -41 -6 -63 -21 -85 -21 -28 -21 -30 -5 -54 20 -32 59
-34 79 -5 16 22 12 52 -9 70 -9 7 -14 32 -14 70 0 46 -3 59 -15 59 -12 0 -15
-13 -15 -55z m38 -112 c5 -17 -26 -29 -40 -15 -6 6 -7 15 -3 22 9 14 37 9 43
-7z"/>
<path d="M660 422 c0 -4 16 -23 35 -42 31 -30 35 -40 35 -82 0 -34 -6 -58 -22
-78 -18 -24 -19 -34 -11 -53 14 -30 46 -39 72 -20 25 17 27 55 6 73 -10 9 -15
32 -15 75 0 60 -1 64 -40 99 -39 35 -60 45 -60 28z m97 -228 c8 -21 -13 -42
-28 -27 -13 13 -5 43 11 43 6 0 13 -7 17 -16z"/>
<path d="M770 417 c0 -7 16 -28 35 -47 35 -34 35 -34 35 -126 0 -69 -4 -95
-15 -104 -22 -18 -19 -67 4 -80 11 -5 24 -10 30 -10 16 0 51 38 51 55 0 8 -9
23 -20 32 -17 15 -20 30 -20 112 l0 95 -42 43 c-44 45 -58 52 -58 30z m106
-326 c-11 -18 -36 -13 -36 7 0 10 3 22 7 26 10 10 37 -20 29 -33z"/>
</g>
</svg>
