<?xml version="1.0" standalone="no"?>
<!DOCTYPE svg PUBLIC "-//W3C//DTD SVG 20010904//EN"
 "http://www.w3.org/TR/2001/REC-SVG-20010904/DTD/svg10.dtd">
<svg version="1.0" xmlns="http://www.w3.org/2000/svg"
 width="70.000000pt" height="63.000000pt" viewBox="0 0 70.000000 63.000000"
 preserveAspectRatio="xMidYMid meet">

<g transform="translate(0.000000,63.000000) scale(0.100000,-0.100000)"
fill="white" stroke="none">
<path d="M143 605 c-83 -42 -132 -133 -118 -218 10 -57 27 -87 74 -130 71 -64
162 -72 249 -21 37 22 43 23 48 9 4 -9 2 -21 -5 -28 -8 -8 3 -26 46 -69 57
-58 87 -70 111 -46 26 26 13 63 -42 117 -48 47 -57 53 -71 41 -11 -9 -19 -10
-27 -2 -7 7 -3 25 16 63 32 66 33 118 2 184 -27 59 -46 77 -106 104 -61 28
-115 26 -177 -4z m199 -24 c97 -67 118 -204 45 -288 -98 -112 -267 -90 -328
42 -45 97 -5 204 96 259 44 24 142 17 187 -13z m205 -455 c-14 -35 -38 -29
-88 20 -27 26 -49 53 -49 58 0 5 8 18 17 28 16 18 19 17 71 -36 38 -37 53 -59
49 -70z"/>
<path d="M153 549 c-53 -34 -76 -81 -71 -143 3 -32 13 -65 26 -83 42 -60 133
-80 202 -45 104 52 109 210 8 272 -45 27 -122 27 -165 -1z m163 -16 c28 -18
64 -81 64 -112 0 -28 -30 -101 -41 -101 -5 0 -9 6 -9 13 0 23 -33 45 -70 48
-72 5 -90 0 -109 -32 l-19 -31 -15 23 c-28 45 -30 86 -7 133 38 79 134 106
206 59z m-25 -173 c12 -7 19 -21 19 -40 0 -38 -49 -56 -109 -40 -36 9 -41 14
-41 40 0 17 7 33 18 39 22 14 88 14 113 1z"/>
<path d="M210 492 c-20 -16 -21 -23 -13 -48 17 -52 83 -38 83 17 0 18 -25 49
-40 49 -4 0 -18 -8 -30 -18z m48 -35 c3 -22 -1 -27 -18 -27 -23 0 -35 22 -26
46 10 25 41 12 44 -19z"/>
</g>
</svg>
