<?xml version="1.0" standalone="no"?>
<!DOCTYPE svg PUBLIC "-//W3C//DTD SVG 20010904//EN"
 "http://www.w3.org/TR/2001/REC-SVG-20010904/DTD/svg10.dtd">
<svg version="1.0" xmlns="http://www.w3.org/2000/svg"
 width="90.000000pt" height="91.000000pt" viewBox="0 0 90.000000 91.000000"
 preserveAspectRatio="xMidYMid meet">

<g transform="translate(0.000000,91.000000) scale(0.100000,-0.100000)"
fill="#000000" stroke="none">
<path d="M342 864 c-29 -14 -66 -42 -82 -62 -32 -38 -60 -115 -60 -163 0 -55
39 -135 86 -179 35 -32 45 -47 42 -68 -3 -26 -6 -27 -68 -32 l-65 -5 -1 -75
-1 -75 -64 -5 -64 -5 0 -75 0 -75 340 0 340 0 3 62 3 62 -63 3 -63 3 -3 53 -3
52 -65 0 -64 0 0 60 c0 48 3 60 15 60 9 0 30 7 46 16 l30 15 108 -105 c66 -65
117 -106 129 -106 22 0 62 44 62 68 0 8 -47 63 -105 121 l-104 106 14 40 c32
90 6 204 -61 267 -76 71 -190 88 -282 42z m203 -25 c136 -64 166 -233 63 -345
-143 -155 -404 -28 -372 182 21 140 180 224 309 163z m213 -453 c92 -93 103
-116 64 -131 -11 -4 -45 23 -114 92 -92 91 -96 98 -81 115 9 10 21 18 28 18 6
0 53 -42 103 -94z m-330 9 l32 -7 0 -159 0 -159 -50 0 -50 0 0 171 c0 157 1
170 18 165 9 -2 32 -7 50 -11z m-100 -192 l-3 -128 -47 -3 -48 -3 0 130 0 131
50 0 51 0 -3 -127z m262 -43 l0 -90 -50 0 -50 0 0 90 0 90 50 0 50 0 0 -90z
m-392 -19 c2 -12 1 -34 -2 -48 -6 -22 -11 -24 -54 -21 l-47 3 -3 48 -3 48 53
-3 c47 -3 53 -6 56 -27z m522 -36 l0 -35 -50 0 -50 0 0 35 0 35 50 0 50 0 0
-35z"/>
<path d="M438 692 l-68 -3 0 -104 c0 -86 3 -105 15 -105 11 0 15 19 17 92 l3
91 45 0 45 0 3 -91 c2 -73 6 -92 17 -92 12 0 15 19 15 104 0 75 -4 105 -12
107 -7 2 -43 3 -80 1z"/>
</g>
</svg>
