<?xml version="1.0" standalone="no"?>
<!DOCTYPE svg PUBLIC "-//W3C//DTD SVG 20010904//EN"
 "http://www.w3.org/TR/2001/REC-SVG-20010904/DTD/svg10.dtd">
<svg version="1.0" xmlns="http://www.w3.org/2000/svg"
 width="152.000000pt" height="141.000000pt" viewBox="0 0 152.000000 141.000000"
 preserveAspectRatio="xMidYMid meet">

<g transform="translate(0.000000,141.000000) scale(0.100000,-0.100000)"
fill="#000000" stroke="none">
<path d="M640 1370 c-11 -21 -20 -48 -20 -60 0 -11 -6 -20 -12 -20 -7 0 -40
-11 -72 -25 -36 -14 -64 -21 -70 -16 -6 5 -30 15 -54 22 -43 12 -43 12 -82
-26 -45 -44 -48 -64 -21 -118 19 -37 19 -37 -5 -94 -13 -32 -24 -63 -24 -69 0
-6 -12 -14 -27 -17 -16 -4 -43 -15 -61 -26 -30 -19 -32 -24 -32 -76 0 -52 2
-57 33 -76 17 -11 44 -22 58 -25 19 -4 29 -15 36 -38 l10 -32 -57 -17 c-74
-21 -149 -88 -187 -165 -23 -47 -28 -70 -28 -132 1 -129 67 -233 185 -289 l55
-26 478 -3 c556 -3 559 -3 638 76 34 34 51 62 63 101 20 68 20 84 0 150 -26
88 -105 158 -196 175 -21 4 -38 12 -38 19 0 7 -13 37 -29 67 -38 73 -30 97 42
126 l52 22 3 65 3 66 -40 21 c-22 11 -47 20 -54 20 -8 0 -22 21 -32 48 -10 26
-24 58 -32 70 -13 21 -13 26 0 40 8 10 20 34 27 55 12 38 11 40 -26 78 -43 44
-63 47 -119 19 l-40 -20 -55 23 c-30 14 -62 27 -70 30 -8 2 -21 24 -28 48 -20
63 -27 69 -93 69 -58 0 -59 0 -79 -40z m138 -15 c7 -14 12 -37 12 -51 0 -17 8
-28 28 -36 15 -6 55 -24 90 -39 63 -28 64 -28 90 -10 48 34 65 34 99 -1 l31
-33 -18 -35 c-11 -19 -22 -40 -25 -47 -4 -7 5 -36 19 -65 14 -29 29 -68 32
-85 5 -26 11 -33 31 -33 13 0 37 -7 53 -15 27 -14 30 -21 30 -61 0 -42 -2 -46
-35 -60 -19 -7 -43 -14 -53 -14 -14 0 -21 -9 -26 -32 l-6 -32 -33 31 c-17 16
-43 37 -56 46 -20 13 -24 26 -27 76 -9 193 -191 321 -379 267 -80 -24 -166
-108 -189 -186 -30 -100 -14 -200 43 -271 17 -21 31 -40 31 -43 0 -3 -24 6
-52 19 -29 14 -66 25 -81 25 -44 0 -65 17 -77 60 -8 29 -16 40 -30 40 -11 0
-35 8 -55 17 -32 15 -35 21 -35 58 0 37 3 43 35 58 20 9 44 17 55 17 14 0 22
11 30 43 7 23 23 62 36 86 22 39 23 46 9 61 -8 9 -20 31 -26 49 -10 30 -9 35
17 62 34 35 41 36 89 3 l38 -25 46 24 c25 14 65 30 89 36 35 10 42 16 42 37 0
14 7 38 15 54 14 26 21 30 59 30 36 0 45 -4 54 -25z m59 -273 c80 -41 126
-103 143 -192 13 -70 7 -80 -38 -68 -20 6 -73 8 -117 6 -67 -3 -90 -10 -143
-38 -37 -19 -82 -55 -107 -83 l-42 -49 -22 30 c-77 108 -65 249 29 343 25 25
66 53 91 62 58 22 151 16 206 -11z m140 -304 c98 -36 176 -128 208 -244 2 -6
22 -14 45 -18 119 -19 194 -104 194 -221 0 -90 -40 -156 -119 -198 -39 -22
-47 -22 -530 -22 -458 0 -493 1 -539 19 -185 71 -240 307 -107 458 80 91 223
116 337 58 66 -33 74 -35 74 -18 0 24 71 115 113 145 91 66 217 82 324 41z"/>
<path d="M775 707 c-56 -22 -102 -56 -130 -98 -21 -32 -24 -44 -15 -53 9 -8
14 -8 18 3 10 29 79 95 117 112 47 22 133 24 178 5 37 -15 117 -98 117 -121 0
-8 7 -15 15 -15 20 0 19 13 -5 60 -20 40 -60 75 -117 104 -37 19 -133 20 -178
3z"/>
<path d="M143 478 c-18 -24 -33 -81 -33 -128 0 -60 42 -144 93 -184 l39 -31
470 -3 c378 -2 469 0 466 10 -4 10 -104 14 -465 18 l-460 5 -35 27 c-66 51
-96 164 -64 242 9 21 16 42 16 47 0 13 -16 11 -27 -3z"/>
</g>
</svg>
