<?xml version="1.0" standalone="no"?>
<!DOCTYPE svg PUBLIC "-//W3C//DTD SVG 20010904//EN"
 "http://www.w3.org/TR/2001/REC-SVG-20010904/DTD/svg10.dtd">
<svg version="1.0" xmlns="http://www.w3.org/2000/svg"
 width="110.000000pt" height="97.000000pt" viewBox="0 0 110.000000 97.000000"
 preserveAspectRatio="xMidYMid meet">

<g transform="translate(0.000000,97.000000) scale(0.100000,-0.100000)"
fill="#000000" stroke="none">
<path d="M215 883 c-3 -10 -20 -27 -38 -38 -27 -17 -32 -26 -32 -60 0 -34 5
-43 32 -60 29 -18 32 -25 33 -68 0 -50 -4 -52 -42 -20 -25 22 -33 -2 -8 -27
11 -11 26 -20 34 -20 7 0 16 -9 19 -20 6 -23 27 -27 27 -5 0 9 11 20 24 25 29
11 56 47 56 75 0 22 -32 58 -62 68 -14 5 -18 18 -18 52 0 49 4 53 38 29 13 -9
26 -14 29 -10 12 11 -8 38 -37 49 -18 7 -30 19 -30 29 0 23 -17 23 -25 1z m-5
-98 c0 -49 -4 -53 -32 -28 -22 20 -23 31 -1 55 25 28 33 22 33 -27z m78 -113
c4 -26 -13 -52 -34 -52 -10 0 -14 13 -14 41 0 36 2 40 23 37 14 -2 23 -11 25
-26z"/>
<path d="M590 861 c-74 -23 -117 -61 -149 -131 -50 -109 -5 -230 107 -286 46
-23 61 -26 115 -21 34 3 69 8 78 11 10 5 32 -10 67 -44 58 -56 97 -65 132 -30
34 34 25 66 -35 129 -51 54 -55 61 -45 85 16 42 12 117 -9 162 -43 95 -166
154 -261 125z m135 -40 c47 -22 89 -64 104 -104 15 -38 14 -120 -1 -152 -11
-24 -8 -30 47 -85 49 -50 57 -62 51 -84 -11 -44 -52 -35 -113 26 -52 51 -52
51 -90 40 -111 -34 -198 -3 -247 89 -90 164 80 348 249 270z"/>
<path d="M597 581 c-41 -62 -48 -81 -26 -81 4 0 24 27 45 60 31 48 43 60 59
55 11 -3 44 -8 73 -11 72 -9 68 11 -5 26 -32 6 -68 13 -79 15 -17 4 -30 -9
-67 -64z"/>
<path d="M963 665 c-48 -22 -70 -45 -42 -45 24 0 109 44 109 56 0 18 -5 17
-67 -11z"/>
<path d="M148 444 c-65 -52 -81 -74 -57 -74 6 0 40 23 74 50 l64 51 110 -56
c61 -30 117 -55 125 -55 21 0 60 57 45 66 -7 4 -20 -3 -30 -17 l-18 -24 -114
58 c-63 31 -119 57 -123 56 -5 0 -39 -25 -76 -55z"/>
<path d="M605 314 c-16 -13 -55 -44 -86 -69 l-57 -44 -83 50 c-46 28 -89 53
-96 56 -16 6 -208 -226 -196 -238 6 -6 40 27 98 96 48 58 93 105 98 105 6 0
49 -23 95 -51 l85 -51 38 29 c21 15 63 48 93 71 l55 44 83 -59 c46 -33 88 -62
93 -65 16 -10 198 35 203 50 5 16 -7 15 -107 -8 l-84 -19 -90 65 c-49 35 -94
64 -101 64 -6 -1 -24 -12 -41 -26z"/>
<path d="M620 135 c0 -50 4 -85 10 -85 6 0 10 35 10 85 0 50 -4 85 -10 85 -6
0 -10 -35 -10 -85z"/>
<path d="M270 125 c0 -43 4 -75 10 -75 6 0 10 32 10 75 0 43 -4 75 -10 75 -6
0 -10 -32 -10 -75z"/>
<path d="M700 115 c0 -51 3 -65 15 -65 12 0 15 14 15 65 0 51 -3 65 -15 65
-12 0 -15 -14 -15 -65z"/>
<path d="M354 147 c-9 -25 0 -90 14 -95 8 -2 12 11 12 47 0 49 -15 76 -26 48z"/>
<path d="M965 137 c-9 -35 -2 -80 13 -85 8 -2 12 11 12 47 0 54 -16 77 -25 38z"/>
<path d="M530 95 c0 -33 4 -45 13 -43 7 3 12 21 12 43 0 22 -5 40 -12 43 -9 2
-13 -10 -13 -43z"/>
<path d="M790 91 c0 -30 4 -41 16 -41 11 0 14 9 12 37 -4 52 -28 56 -28 4z"/>
<path d="M880 90 c0 -22 5 -40 10 -40 6 0 10 18 10 40 0 22 -4 40 -10 40 -5 0
-10 -18 -10 -40z"/>
<path d="M440 80 c0 -20 5 -30 15 -30 10 0 15 10 15 30 0 20 -5 30 -15 30 -10
0 -15 -10 -15 -30z"/>
<path d="M184 76 c-8 -22 3 -33 18 -18 9 9 9 15 0 24 -9 9 -13 7 -18 -6z"/>
</g>
</svg>
