<?xml version="1.0" standalone="no"?>
<!DOCTYPE svg PUBLIC "-//W3C//DTD SVG 20010904//EN"
 "http://www.w3.org/TR/2001/REC-SVG-20010904/DTD/svg10.dtd">
<svg version="1.0" xmlns="http://www.w3.org/2000/svg"
 width="99.000000pt" height="74.000000pt" viewBox="0 0 99.000000 74.000000"
 preserveAspectRatio="xMidYMid meet">

<g transform="translate(0.000000,74.000000) scale(0.100000,-0.100000)"
fill="white" stroke="none">
<path d="M460 704 c-19 -8 -48 -25 -65 -39 -23 -17 -44 -23 -76 -23 -75 2
-125 -49 -131 -132 -2 -25 -11 -38 -39 -57 -65 -43 -88 -127 -51 -188 21 -33
97 -81 106 -66 4 5 -11 19 -32 31 -97 54 -93 163 8 215 23 12 28 22 32 65 4
38 12 58 34 81 27 29 33 31 81 26 38 -4 55 -2 60 8 15 25 85 64 128 70 120 19
230 -52 253 -162 6 -31 13 -38 42 -46 52 -13 90 -46 112 -93 33 -76 -3 -149
-89 -179 -39 -14 -46 -33 -9 -26 60 10 121 69 132 127 14 73 -46 162 -128 190
-26 8 -34 19 -45 58 -35 119 -203 192 -323 140z"/>
<path d="M713 423 c-39 -7 -25 -23 19 -23 l43 0 -85 -85 c-47 -47 -88 -85 -92
-85 -4 0 -21 20 -39 45 -18 25 -36 45 -40 45 -4 0 -35 -34 -69 -75 -34 -41
-65 -75 -70 -75 -5 0 -25 14 -45 31 -20 18 -39 28 -44 23 -4 -5 -33 -39 -65
-76 -31 -36 -53 -69 -48 -72 6 -3 35 23 67 59 l57 65 36 -30 c20 -16 41 -30
47 -30 5 1 37 35 70 76 l60 76 32 -39 c18 -21 33 -41 33 -45 0 -23 34 2 117
84 l93 93 0 -43 c0 -23 4 -42 9 -42 11 0 25 106 16 120 -6 10 -58 11 -102 3z"/>
</g>
</svg>
